# xmcd
#
# Track frame offsets:
#	150
#	18734
#	36722
#	48901
#	63827
#	73932
#	85703
#	97072
#	111628
#	126321
#
# Disc length: 1849 seconds
#
# Revision: 2
# Processed by: cddbd v1.5.2PL0 Copyright (c) Steve Scherf et al.
# Submitted via: audiograbber 1.83.01
#
DISCID=9707370a
DTITLE=Mark Chesnutt - Heard it in a love song
DYEAR=2006
DGENRE=Country
TTITLE0=Heard it in a love song
TTITLE1=Dreaming my dreams with you
TTITLE2=That good that bad
TTITLE3=A hard secret to keep
TTITLE4=A day in the life of a fool
TTITLE5=You can't find many kissers
TTITLE6=Apartment  #9
TTITLE7=A shoulder to cry on
TTITLE8=Goodbye comes hard for me
TTITLE9=Lost highway
EXTD=
EXTT0=
EXTT1=
EXTT2=
EXTT3=
EXTT4=
EXTT5=
EXTT6=
EXTT7=
EXTT8=
EXTT9=
PLAYORDER=
